<?xml version="1.0" encoding="utf-8"?>
<!-- Generator: Adobe Illustrator 17.0.0, SVG Export Plug-In . SVG Version: 6.00 Build 0)  -->
<!DOCTYPE svg PUBLIC "-//W3C//DTD SVG 1.1//EN" "http://www.w3.org/Graphics/SVG/1.1/DTD/svg11.dtd">
<svg version="1.1" id="Layer_1" xmlns="http://www.w3.org/2000/svg" xmlns:xlink="http://www.w3.org/1999/xlink" x="0px" y="0px"
	 width="300px" height="70px" viewBox="0 0 300 70" enable-background="new 0 0 300 70" xml:space="preserve">
<path fill="#9B9B9B" d="M122.361,65.62c-2.034-2.919-3.051-6.938-3.051-12.056V24.531h-7.676c-0.656,0-1.181-0.197-1.575-0.59
	c-0.393-0.394-0.59-0.918-0.59-1.575v-1.378c0-0.655,0.197-1.181,0.59-1.575c0.394-0.394,0.919-0.591,1.575-0.591h7.676V2.29
	c0-0.655,0.197-1.181,0.59-1.575c0.394-0.394,0.919-0.591,1.575-0.591h1.673c0.655,0,1.18,0.197,1.574,0.591s0.59,0.919,0.59,1.575
	v16.534h12.204c0.655,0,1.181,0.197,1.574,0.591c0.394,0.394,0.591,0.919,0.591,1.575v1.378c0,0.656-0.197,1.181-0.591,1.575
	c-0.393,0.394-0.919,0.59-1.574,0.59h-12.204V53.17c0,3.675,0.606,6.447,1.821,8.316c1.213,1.87,3.23,2.805,6.052,2.805h5.315
	c0.655,0,1.181,0.196,1.574,0.59c0.394,0.394,0.591,0.92,0.591,1.574v1.378c0,0.656-0.197,1.181-0.591,1.574
	c-0.393,0.394-0.919,0.591-1.574,0.591h-5.807C127.839,70,124.395,68.54,122.361,65.62z"/>
<path fill="#9B9B9B" d="M154.739,63.849c-3.806-4.1-5.97-9.596-6.495-16.485l-0.098-3.937l0.098-3.937
	c0.525-6.823,2.673-12.302,6.446-16.436c3.772-4.133,8.808-6.2,15.107-6.2c6.823,0,12.154,2.263,15.993,6.791
	c3.838,4.527,5.757,10.727,5.757,18.601v1.476c0,0.657-0.213,1.181-0.64,1.575c-0.427,0.394-0.969,0.591-1.623,0.591h-35.037v0.984
	c0.131,3.085,0.837,5.954,2.116,8.612c1.279,2.657,3.066,4.79,5.364,6.397c2.296,1.608,4.985,2.411,8.07,2.411
	c3.607,0,6.544-0.704,8.807-2.116c2.264-1.41,3.888-2.837,4.872-4.281c0.591-0.788,1.033-1.28,1.329-1.476
	c0.295-0.197,0.836-0.296,1.623-0.296h1.575c0.59,0,1.082,0.165,1.476,0.492c0.393,0.33,0.59,0.755,0.59,1.28
	c0,1.377-0.871,3.035-2.608,4.97c-1.739,1.936-4.15,3.609-7.233,5.019c-3.085,1.41-6.561,2.116-10.432,2.116
	C163.563,70,158.544,67.95,154.739,63.849z M185.544,40.376v-0.394c0-5.052-1.427-9.217-4.282-12.499
	c-2.853-3.28-6.677-4.921-11.465-4.921c-4.79,0-8.58,1.641-11.368,4.921c-2.789,3.282-4.183,7.448-4.183,12.499v0.394H185.544z"/>
<path fill="#9B9B9B" d="M208.08,64.046c-3.74-3.969-5.708-9.53-5.905-16.682l-0.099-3.937l0.099-3.937
	c0.197-7.151,2.165-12.711,5.905-16.682c3.74-3.969,9.02-5.954,15.845-5.954c4.331,0,8.021,0.772,11.072,2.313
	c3.051,1.542,5.33,3.51,6.84,5.905c1.509,2.396,2.328,4.871,2.46,7.43c0.064,0.591-0.133,1.099-0.59,1.526
	c-0.46,0.427-0.984,0.64-1.575,0.64h-1.377c-0.657,0-1.132-0.148-1.427-0.443c-0.295-0.295-0.607-0.837-0.935-1.624
	c-1.313-3.607-3.15-6.183-5.511-7.726c-2.362-1.541-5.348-2.313-8.956-2.313c-4.724,0-8.481,1.427-11.269,4.281
	c-2.789,2.854-4.281,7.234-4.478,13.139l-0.098,3.445l0.098,3.445c0.197,5.905,1.689,10.285,4.478,13.139
	c2.788,2.854,6.545,4.282,11.269,4.282c3.608,0,6.594-0.771,8.956-2.313c2.361-1.541,4.198-4.116,5.511-7.725
	c0.328-0.787,0.64-1.329,0.935-1.624s0.77-0.443,1.427-0.443h1.377c0.591,0,1.115,0.214,1.575,0.64
	c0.457,0.428,0.655,0.935,0.59,1.525c-0.133,2.559-0.951,5.036-2.46,7.43c-1.51,2.396-3.789,4.364-6.84,5.905
	C231.946,69.228,228.255,70,223.925,70C217.1,70,211.82,68.016,208.08,64.046z"/>
<path fill="#9B9B9B" d="M257.976,69.409c-0.393-0.393-0.59-0.918-0.59-1.574V2.29c0-0.655,0.197-1.181,0.59-1.575
	c0.394-0.394,0.918-0.591,1.575-0.591h1.672c0.655,0,1.181,0.197,1.575,0.591c0.393,0.394,0.59,0.919,0.59,1.575v23.324
	c1.968-2.559,4.215-4.493,6.742-5.806c2.525-1.312,5.79-1.968,9.792-1.968c6.43,0,11.383,2.051,14.861,6.151
	C298.26,28.091,300,33.389,300,39.884v27.951c0,0.656-0.197,1.181-0.59,1.574c-0.394,0.394-0.92,0.591-1.575,0.591h-1.673
	c-0.656,0-1.18-0.197-1.574-0.591c-0.394-0.393-0.59-0.918-0.59-1.574V40.376c0-5.314-1.297-9.448-3.888-12.401
	c-2.593-2.952-6.315-4.429-11.171-4.429c-4.724,0-8.497,1.494-11.318,4.478c-2.822,2.986-4.232,7.103-4.232,12.351v27.458
	c0,0.656-0.197,1.181-0.59,1.574c-0.394,0.394-0.92,0.591-1.575,0.591h-1.672C258.894,70,258.37,69.803,257.976,69.409z"/>
<rect x="84" fill="#970028" width="14" height="14"/>
<rect x="70" y="14" fill="#999C6D" width="14" height="14"/>
<rect x="56" y="28" fill="#FF0000" width="14" height="14"/>
<rect x="84" y="28" fill="#005D34" width="14" height="14"/>
<rect x="84" y="14" fill="#B188A4" width="14" height="14"/>
<rect x="84" y="42" fill="#FF0000" width="14" height="14"/>
<rect x="42" y="42" fill="#E89F00" width="14" height="14"/>
<rect x="56" y="42" fill="#B49977" width="14" height="14"/>
<rect x="70" y="42" fill="#6FAD90" width="14" height="14"/>
<rect x="84" y="56" fill="#7CBC26" width="14" height="14"/>
<rect x="14" fill="#D745FA" width="14" height="14"/>
<rect x="14" y="14" fill="#6FAD90" width="14" height="14"/>
<rect y="14" fill="#E89F00" width="14" height="14"/>
<rect x="28" y="14" fill="#B188A4" width="14" height="14"/>
<rect x="14" y="28" fill="#B49977" width="14" height="14"/>
<rect x="28" y="56" fill="#B49977" width="14" height="14"/>
<rect x="14" y="42" fill="#7CBC26" width="14" height="14"/>
<rect x="14" y="56" fill="#970028" width="14" height="14"/>
</svg>
